<svg width="48" height="48" xmlns="http://www.w3.org/2000/svg" fill="rgb(21,163,96)">

 <g>
  <title>Layer 1</title>
  <path id="svg_1" d="m14,25.10701q2.7,0 4.575,-1.875t1.875,-4.575q0,-2.7 -1.875,-4.575t-4.575,-1.875q-2.7,0 -4.575,1.875t-1.875,4.575q0,2.7 1.875,4.575t4.575,1.875zm0,5.55q-5,0 -8.5,-3.5t-3.5,-8.5q0,-5 3.5,-8.5t8.5,-3.5q4.25,0 7.125,2.325t4.025,5.925l17.2,0l3.65,3.65l-7.3,7.3l-4.2,-4.2l-4.2,4.2l-3.55,-3.55l-1.6,0q-0.95,3.75 -4.025,6.05t-7.125,2.3z"/>
  <path id="svg_3" d="m14,36.45q2.7,0 4.575,-1.875t1.875,-4.575q0,-2.7 -1.875,-4.575t-4.575,-1.875q-2.7,0 -4.575,1.875t-1.875,4.575q0,2.7 1.875,4.575t4.575,1.875zm0,5.55q-5,0 -8.5,-3.5t-3.5,-8.5q0,-5 3.5,-8.5t8.5,-3.5q4.25,0 7.125,2.325t4.025,5.925l17.2,0l3.65,3.65l-7.3,7.3l-4.2,-4.2l-4.2,4.2l-3.55,-3.55l-1.6,0q-0.95,3.75 -4.025,6.05t-7.125,2.3z"/>
 </g>
</svg>