<?xml version="1.0" encoding="iso-8859-1"?>
<!-- Generator: Adobe Illustrator 19.0.0, SVG Export Plug-In . SVG Version: 6.00 Build 0)  -->
<svg version="1.1" id="Layer_1" xmlns="http://www.w3.org/2000/svg" xmlns:xlink="http://www.w3.org/1999/xlink" x="0px" y="0px"
	viewBox="77.044 131.261 369.434 222.257" width="369.434" height="222.257" style="enable-background:new 0 0 512 512;" xml:space="preserve">
   <rect x="265.361" y="217.077" width="175.444" height="26.685" style="stroke: rgb(0, 0, 0); stroke-width: 0px; fill: rgb(110, 197, 146);"></rect>
  <rect x="277.773" y="242.896" width="163.553" height="27.154" style="stroke: rgb(0, 0, 0); stroke-width: 0px; fill: rgb(88, 214, 141);"></rect>
  <rect x="260.724" y="269.42" width="180.603" height="30.311" style="stroke: rgb(0, 0, 0); stroke-width: 0px; fill: rgb(78, 183, 155);"></rect>
  <polygon style="fill: rgb(142, 215, 224);" points="233.429 137.312 354.94 347.775 111.918 347.775"></polygon>
  <polygon style="fill: rgb(182, 242, 252);" points="333.123 309.993 333.792 311.148 169.757 247.597 276.852 212.52 295.609 245.011 314.366 277.51 314.374 277.51"></polygon>
  <path d="M 238.383 134.209 C 237.33 132.385 235.384 131.261 233.277 131.261 C 231.17 131.261 229.224 132.385 228.171 134.209 L 203.079 177.669 C 201.451 180.489 202.418 184.095 205.237 185.723 C 208.058 187.351 211.664 186.384 213.291 183.565 L 233.277 148.949 L 344.576 341.725 L 121.977 341.725 L 203.784 200.031 C 205.412 197.211 204.446 193.605 201.626 191.977 C 198.804 190.348 195.199 191.314 193.572 194.134 L 106.659 344.673 C 105.606 346.497 105.606 348.746 106.659 350.569 C 107.712 352.393 109.658 353.518 111.765 353.518 L 354.788 353.518 C 356.895 353.518 358.841 352.393 359.894 350.569 C 360.947 348.746 360.947 346.497 359.894 344.673 L 238.383 134.209 Z" style=""></path>
  <path d="M 308.911 222.242 L 319.519 222.749 C 319.615 222.754 319.71 222.756 319.806 222.756 C 322.932 222.756 325.539 220.299 325.69 217.141 C 325.845 213.889 323.334 211.126 320.082 210.971 L 309.474 210.463 C 306.232 210.312 303.458 212.818 303.303 216.071 C 303.148 219.323 305.659 222.086 308.911 222.242 Z" style="" transform="matrix(0.99835, -0.05742, 0.05742, 0.99835, -11.918649, 18.41577)"></path>
  <path d="M 349.216 220.214 L 439.091 224.392 C 439.189 224.397 439.287 224.399 439.386 224.399 C 442.601 224.399 445.281 221.942 445.436 218.784 C 445.596 215.532 443.014 212.77 439.67 212.614 L 349.795 208.436 C 346.447 208.278 343.608 210.79 343.449 214.044 C 343.29 217.297 345.872 220.059 349.216 220.214 Z" style="" transform="matrix(0.998853, -0.047874, 0.047874, 0.998853, -9.908331, 19.131693)"></path>
  <path d="M 250.481 214.748 L 196.365 232.473 C 193.27 233.486 191.583 236.816 192.596 239.911 C 193.411 242.396 195.718 243.974 198.199 243.974 C 198.806 243.974 199.426 243.879 200.034 243.679 L 254.151 225.954 C 257.246 224.941 258.933 221.611 257.918 218.516 C 256.905 215.422 253.572 213.734 250.481 214.748 Z" style=""></path>
  <path d="M 149.578 252.417 C 148.794 249.256 145.597 247.332 142.434 248.117 L 81.519 263.249 C 78.359 264.035 76.434 267.233 77.219 270.393 C 77.886 273.077 80.291 274.869 82.936 274.869 C 83.407 274.869 83.885 274.812 84.363 274.694 L 145.277 259.561 C 148.438 258.775 150.363 255.577 149.578 252.417 Z" style=""></path>
  <path d="M 440.094 238.676 L 332.027 233.88 C 328.538 233.724 325.544 236.236 325.376 239.488 C 325.209 242.741 327.913 245.503 331.419 245.659 L 439.487 250.455 C 439.59 250.46 439.693 250.462 439.796 250.462 C 443.166 250.462 445.975 248.004 446.137 244.847 C 446.305 241.594 443.599 238.832 440.094 238.676 Z" style="" transform="matrix(0.998804, -0.048898, 0.048898, 0.998804, -11.380057, 19.152407)"></path>
  <path d="M 382.475 276.346 C 382.577 276.35 382.678 276.352 382.78 276.352 C 386.102 276.352 388.873 273.923 389.033 270.801 C 389.198 267.585 386.531 264.855 383.073 264.7 L 345.726 263.039 C 342.279 262.879 339.333 265.367 339.167 268.583 C 339.002 271.799 341.669 274.529 345.128 274.684 L 382.475 276.346 Z" style="" transform="matrix(0.998654, -0.051868, 0.051868, 0.998654, -13.49828, 19.248158)"></path>
  <path d="M 439.841 264.956 L 409.99 263.603 C 406.559 263.443 403.643 265.958 403.478 269.21 C 403.314 272.463 405.962 275.226 409.396 275.381 L 439.246 276.735 C 439.348 276.739 439.448 276.741 439.549 276.741 C 442.849 276.741 445.599 274.284 445.758 271.127 C 445.922 267.874 443.273 265.111 439.841 264.956 Z" style="" transform="matrix(0.998911, -0.046658, 0.046658, 0.998911, -12.143074, 20.10606)"></path>
  <path d="M 439.513 294.638 L 373.004 291.636 C 369.572 291.478 366.629 293.99 366.464 297.244 C 366.298 300.496 368.959 303.259 372.408 303.415 L 438.916 306.417 C 439.017 306.422 439.118 306.424 439.22 306.424 C 442.534 306.424 445.295 303.967 445.455 300.809 C 445.621 297.556 442.96 294.793 439.513 294.638 Z" style="" transform="matrix(0.998306, -0.058187, 0.058187, 0.998306, -16.711634, 24.128201)"></path>
  <path d="M 190.285 255.455 C 189.108 258.492 190.616 261.907 193.653 263.083 L 305.915 306.576 C 306.615 306.847 307.335 306.976 308.043 306.976 C 310.406 306.976 312.637 305.544 313.541 303.209 C 314.718 300.173 313.21 296.757 310.173 295.581 L 197.912 252.088 C 194.874 250.912 191.461 252.419 190.285 255.455 Z" style=""></path>
<g>
</g>
<g>
</g>
<g>
</g>
<g>
</g>
<g>
</g>
<g>
</g>
<g>
</g>
<g>
</g>
<g>
</g>
<g>
</g>
<g>
</g>
<g>
</g>
<g>
</g>
<g>
</g>
<g>
</g>
</svg>
