<?xml version="1.0" encoding="iso-8859-1"?>
<!-- Generator: Adobe Illustrator 19.0.0, SVG Export Plug-In . SVG Version: 6.00 Build 0)  -->
<svg version="1.1" id="Layer_1" xmlns="http://www.w3.org/2000/svg" xmlns:xlink="http://www.w3.org/1999/xlink" x="0px" y="0px"
	 viewBox="149.054 -25.613 381.871 222.257" style="enable-background:new 0 0 512 512;" xml:space="preserve">
 <polygon style="fill: rgb(142, 215, 224);" points="305.439 -19.562 426.95 190.901 183.928 190.901"></polygon>
  <polygon style="fill: rgb(88, 214, 141);" points="503.509 66.803 515.752 95.622 379.426 108.446 378.405 134.621 346.174 71.731"></polygon>
  <polygon style="fill: rgb(78, 183, 155);" points="514.895 93.91 527.738 122.936 398.292 136.852 399.996 140.277 378.405 134.621 381.247 107.794"></polygon>
  <path style="fill: rgb(110, 197, 146);" d="M 492.635 41.843 C 492.615 41.882 502.674 73.219 507.19 69.008 L 360.77 82.144 L 332.809 80.378 L 348.862 55.646 L 492.635 41.843 Z"></path>
  <polygon style="fill: rgb(182, 242, 252);" points="405.133 153.119 405.802 154.274 241.767 90.723 348.862 55.646 367.619 88.137 386.376 120.636 386.384 120.636"></polygon>
  <path d="M 310.393 -22.665 C 309.34 -24.489 307.394 -25.613 305.287 -25.613 C 303.18 -25.613 301.234 -24.489 300.181 -22.665 L 275.089 20.795 C 273.461 23.615 274.428 27.221 277.247 28.849 C 280.068 30.477 283.674 29.51 285.301 26.691 L 305.287 -7.925 L 416.586 184.851 L 193.987 184.851 L 275.794 43.157 C 277.422 40.337 276.456 36.731 273.636 35.103 C 270.814 33.474 267.209 34.44 265.582 37.26 L 178.669 187.799 C 177.616 189.623 177.616 191.872 178.669 193.695 C 179.722 195.519 181.668 196.644 183.775 196.644 L 426.798 196.644 C 428.905 196.644 430.851 195.519 431.904 193.695 C 432.957 191.872 432.957 189.623 431.904 187.799 L 310.393 -22.665 Z" style=""></path>
  <path d="M 370.213 57.023 L 380.821 57.53 C 380.917 57.535 381.012 57.537 381.108 57.537 C 384.234 57.537 386.841 55.08 386.992 51.922 C 387.147 48.67 384.636 45.907 381.384 45.752 L 370.776 45.244 C 367.534 45.093 364.76 47.599 364.605 50.852 C 364.45 54.104 366.961 56.867 370.213 57.023 Z" style="" transform="matrix(0.983664, -0.180014, 0.180014, 0.983664, -3.1114, 68.488449)"></path>
  <path d="M 402.218 47.284 L 489.62 51.462 C 489.716 51.467 489.811 51.469 489.907 51.469 C 493.034 51.469 495.64 49.012 495.791 45.854 C 495.946 42.602 493.435 39.84 490.183 39.684 L 402.781 35.506 C 399.526 35.348 396.765 37.86 396.61 41.114 C 396.455 44.367 398.966 47.129 402.218 47.284 Z" style="" transform="matrix(0.986455, -0.164031, 0.164031, 0.986455, -1.089016, 73.779686)"></path>
  <path d="M 322.491 57.874 L 268.375 75.599 C 265.28 76.612 263.593 79.942 264.606 83.037 C 265.421 85.522 267.728 87.1 270.209 87.1 C 270.816 87.1 271.436 87.005 272.044 86.805 L 326.161 69.08 C 329.256 68.067 330.943 64.737 329.928 61.642 C 328.915 58.548 325.582 56.86 322.491 57.874 Z" style=""></path>
  <path d="M 221.588 95.543 C 220.804 92.382 217.607 90.458 214.444 91.243 L 153.529 106.375 C 150.369 107.161 148.444 110.359 149.229 113.519 C 149.896 116.203 152.301 117.995 154.946 117.995 C 155.417 117.995 155.895 117.938 156.373 117.82 L 217.287 102.687 C 220.448 101.901 222.373 98.703 221.588 95.543 Z" style=""></path>
  <path d="M 502.531 68.76 L 402.25 63.964 C 399.012 63.808 396.234 66.32 396.078 69.572 C 395.923 72.825 398.433 75.587 401.686 75.743 L 501.967 80.539 C 502.063 80.544 502.158 80.546 502.254 80.546 C 505.381 80.546 507.987 78.088 508.138 74.931 C 508.294 71.678 505.783 68.916 502.531 68.76 Z" style="" transform="matrix(0.985023, -0.172422, 0.172422, 0.985023, -5.686614, 79.0355)"></path>
  <path d="M 453.819 110.243 C 453.915 110.248 454.01 110.25 454.106 110.25 C 457.232 110.25 459.839 107.793 459.989 104.635 C 460.145 101.382 457.635 98.62 454.382 98.464 L 419.243 96.783 C 416 96.622 413.228 99.138 413.072 102.391 C 412.916 105.644 415.426 108.406 418.68 108.562 L 453.819 110.243 Z" style="" transform="matrix(0.985906, -0.167299, 0.167299, 0.985906, -11.165224, 74.490021)"></path>
  <path d="M 515.857 91.294 L 487.567 89.94 C 484.316 89.78 481.552 92.296 481.396 95.548 C 481.24 98.801 483.75 101.564 487.004 101.719 L 515.293 103.073 C 515.389 103.077 515.484 103.079 515.58 103.079 C 518.707 103.079 521.313 100.622 521.464 97.465 C 521.62 94.212 519.109 91.449 515.857 91.294 Z" style="" transform="matrix(0.984282, -0.176602, 0.176602, 0.984282, -9.16183, 90.070419)"></path>
  <path d="M 524.609 121.175 L 461.851 118.173 C 458.612 118.015 455.835 120.527 455.679 123.781 C 455.523 127.033 458.034 129.796 461.288 129.952 L 524.045 132.954 C 524.141 132.959 524.236 132.961 524.332 132.961 C 527.459 132.961 530.065 130.504 530.216 127.346 C 530.372 124.093 527.861 121.33 524.609 121.175 Z" style="" transform="matrix(0.987285, -0.158961, 0.158961, 0.987285, -13.691799, 79.955986)"></path>
  <path d="M 262.295 98.581 C 261.118 101.618 262.626 105.033 265.663 106.209 L 377.925 149.702 C 378.625 149.973 379.345 150.102 380.053 150.102 C 382.416 150.102 384.647 148.67 385.551 146.335 C 386.728 143.299 385.22 139.883 382.183 138.707 L 269.922 95.214 C 266.884 94.038 263.471 95.545 262.295 98.581 Z" style=""></path>
<g>
</g>
<g>
</g>
<g>
</g>
<g>
</g>
<g>
</g>
<g>
</g>
<g>
</g>
<g>
</g>
<g>
</g>
<g>
</g>
<g>
</g>
<g>
</g>
<g>
</g>
<g>
</g>
<g>
</g>
</svg>
