<svg width="512" height="512" xmlns="http://www.w3.org/2000/svg" xml:space="preserve" version="1.1">

 <g>
  <g id="svg_16"/>
  <g id="svg_17"/>
  <g id="svg_18"/>
  <g id="svg_19"/>
  <g id="svg_20"/>
  <g id="svg_21"/>
  <g id="svg_22"/>
  <g id="svg_23"/>
  <g id="svg_24"/>
  <g id="svg_25"/>
  <g id="svg_26"/>
  <g id="svg_27"/>
  <g id="svg_28"/>
  <g id="svg_29"/>
  <g id="svg_30"/>
  <g id="svg_33">
   <polygon id="svg_1" fill="#1BB586" points="230.906,100.851 410.32,411.605 51.492,411.605 "/>
   <polygon id="svg_5" fill="#3AC298" points="378.107,355.819 379.094,357.525 136.893,263.69 295.021,211.898 322.717,259.872   350.412,307.857 350.424,307.857 "/>
   <path style="fill:#009b72" id="svg_6" d="m238.221,96.27c-1.555,-2.694 -4.428,-4.353 -7.539,-4.353s-5.984,1.66 -7.539,4.353l-37.049,64.169c-2.404,4.164 -0.977,9.488 3.186,11.892c4.166,2.404 9.489,0.977 11.892,-3.186l29.51,-51.111l164.336,284.638l-328.673,0l120.79,-209.215c2.404,-4.164 0.977,-9.488 -3.186,-11.892c-4.167,-2.405 -9.49,-0.979 -11.892,3.186l-128.33,222.274c-1.555,2.693 -1.555,6.013 0,8.706c1.555,2.693 4.428,4.353 7.539,4.353l358.83,0c3.111,0 5.984,-1.66 7.539,-4.353s1.555,-6.013 0,-8.706l-179.414,-310.755z"/>
  </g>
 </g>
</svg>