<svg width="512" height="512" xmlns="http://www.w3.org/2000/svg" xml:space="preserve" version="1.1">

 <g>
  <g id="svg_16"/>
  <g id="svg_17"/>
  <g id="svg_18"/>
  <g id="svg_19"/>
  <g id="svg_20"/>
  <g id="svg_21"/>
  <g id="svg_22"/>
  <g id="svg_23"/>
  <g id="svg_24"/>
  <g id="svg_25"/>
  <g id="svg_26"/>
  <g id="svg_27"/>
  <g id="svg_28"/>
  <g id="svg_29"/>
  <g id="svg_30"/>
  <g id="svg_33">
   <polygon id="svg_1" fill="#1BB586" points="230.906,100.851 410.32,411.605 51.492,411.605 "/>
   <polygon id="svg_5" fill="#3AC298" points="378.107,355.819 379.094,357.525 136.893,263.69 295.021,211.898 322.717,259.872   350.412,307.857 350.424,307.857 "/>
   <!-- <path style="fill:#009b72" transform="rotate(-17 337.142 212.675)" id="svg_7" d="m328.89577,220.99549l15.663,0.749c0.142,0.007 0.282,0.01 0.423,0.01c4.617,0 8.466,-3.628 8.688,-8.29c0.23,-4.802 -3.478,-8.881 -8.28,-9.111l-15.663,-0.749c-4.787,-0.224 -8.882,3.476 -9.112,8.28c-0.228,4.802 3.479,8.881 8.281,9.111z"/>
   <path style="fill:#009b72" transform="rotate(-60 349.394 134.589)" id="svg_8" d="m284.453,140.20067l129.051,6.169c0.142,0.007 0.282,0.01 0.423,0.01c4.617,0 8.466,-3.628 8.688,-8.29c0.23,-4.802 -3.478,-8.881 -8.28,-9.111l-129.051,-6.169c-4.806,-0.233 -8.882,3.476 -9.112,8.28c-0.229,4.804 3.479,8.882 8.281,9.111z"/> -->
   <path style="fill:#fff" id="svg_9" d="m256.084,215.188l-79.904,26.171c-4.57,1.496 -7.061,6.413 -5.565,10.983c1.203,3.669 4.61,5.998 8.273,5.998c0.897,0 1.812,-0.14 2.71,-0.435l79.904,-26.171c4.57,-1.496 7.061,-6.413 5.563,-10.983c-1.496,-4.569 -6.417,-7.06 -10.981,-5.563z"/>
   <path style="fill:#009b72" id="svg_10" d="m107.098,270.807c-1.158,-4.667 -5.878,-7.509 -10.548,-6.35l-89.942,22.344c-4.666,1.16 -7.509,5.882 -6.349,10.548c0.984,3.962 4.535,6.609 8.441,6.609c0.695,0 1.401,-0.084 2.106,-0.259l89.942,-22.344c4.667,-1.16 7.51,-5.882 6.35,-10.548z"/>
   <path style="fill:#fff" id="svg_15" d="m167.203,275.293c-1.738,4.483 0.489,9.526 4.973,11.263l165.757,64.218c1.034,0.4 2.097,0.59 3.142,0.59c3.49,0 6.783,-2.114 8.119,-5.562c1.738,-4.483 -0.489,-9.526 -4.973,-11.263l-165.757,-64.218c-4.485,-1.737 -9.525,0.489 -11.261,4.972z"/>
  </g>
 </g>
</svg>