<svg width="512" height="512" xmlns="http://www.w3.org/2000/svg" xml:space="preserve" version="1.1">

 <g>
  <g id="svg_16"/>
  <g id="svg_17"/>
  <g id="svg_18"/>
  <g id="svg_19"/>
  <g id="svg_20"/>
  <g id="svg_21"/>
  <g id="svg_22"/>
  <g id="svg_23"/>
  <g id="svg_24"/>
  <g id="svg_25"/>
  <g id="svg_26"/>
  <g id="svg_27"/>
  <g id="svg_28"/>
  <g id="svg_29"/>
  <g id="svg_30"/>
  <g id="svg_33">
   <polygon id="svg_1" fill="#1BB586" points="230.906,100.851 410.32,411.605 51.492,411.605 "/>
   <polygon id="svg_5" fill="#3AC298" points="378.107,355.819 379.094,357.525 136.893,263.69 295.021,211.898 322.717,259.872   350.412,307.857 350.424,307.857 "/>
   <!-- <path style="fill:#009b72" transform="rotate(-17 337.142 212.675)" id="svg_7" d="m328.89577,220.99549l15.663,0.749c0.142,0.007 0.282,0.01 0.423,0.01c4.617,0 8.466,-3.628 8.688,-8.29c0.23,-4.802 -3.478,-8.881 -8.28,-9.111l-15.663,-0.749c-4.787,-0.224 -8.882,3.476 -9.112,8.28c-0.228,4.802 3.479,8.881 8.281,9.111z"/>
   <path style="fill:#009b72" transform="rotate(-60 349.394 134.589)" id="svg_8" d="m284.453,140.20067l129.051,6.169c0.142,0.007 0.282,0.01 0.423,0.01c4.617,0 8.466,-3.628 8.688,-8.29c0.23,-4.802 -3.478,-8.881 -8.28,-9.111l-129.051,-6.169c-4.806,-0.233 -8.882,3.476 -9.112,8.28c-0.229,4.804 3.479,8.882 8.281,9.111z"/> -->
  </g>
 </g>
</svg>